<svg width="47" height="47" viewBox="0 0 47 47" fill="none" xmlns="http://www.w3.org/2000/svg">
<path d="M0 0V7.0171V47H47V0H0ZM47 32.9658L39.9829 39.9829L32.9658 47H47V32.9658Z" fill="#1EAAFF"/>
<path d="M15.8722 12.6208C15.8722 13.7237 15.4904 14.6568 14.7269 15.4203C13.9775 16.1696 13.0514 16.5444 11.9486 16.5444C10.8598 16.5444 9.93371 16.1627 9.1702 15.3992C8.42083 14.6357 8.04614 13.7096 8.04614 12.6208C8.04614 11.5322 8.42083 10.6131 9.1702 9.86376C9.93371 9.10025 10.8598 8.71851 11.9486 8.71851C13.0373 8.71851 13.9634 9.10025 14.7269 9.86376C15.4904 10.6131 15.8722 11.5322 15.8722 12.6208Z" fill="white"/>
<path d="M15.4234 38.3087H8.46704V18.6271H15.4234V38.3087Z" fill="white"/>
<path d="M38.9498 38.3087H31.9935V28.3405C31.9935 26.6014 31.7955 25.4491 31.3996 24.8835C30.82 24.0493 29.9504 23.6323 28.791 23.6323C27.7305 23.6323 26.8398 23.9928 26.1187 24.7139C25.4683 25.3643 25.1431 26.3824 25.1431 27.768V38.3089H18.1867V18.6272H25.1431V21.1086C25.949 20.1754 26.6913 19.5181 27.37 19.1363C28.4728 18.5142 29.8514 18.203 31.5056 18.203C33.6265 18.203 35.3515 18.7757 36.6806 19.921C38.1935 21.2218 38.9499 23.1729 38.9499 25.7745L38.9498 38.3087Z" fill="white"/>
</svg>
