<svg width="1280" height="516" viewBox="0 0 1280 516" fill="none" xmlns="http://www.w3.org/2000/svg">
<g clip-path="url(#clip0)">
<rect x="0.5" y="0.5" width="1279" height="515" fill="#9147FF"/>
<path d="M15.4758 494.738C16.3789 485.494 21.406 475.196 27.5332 472.502L27.5258 472.363C33.012 475.974 36.1099 487.095 35.3457 496.332C34.4427 505.576 29.9544 510.272 23.8199 512.827L23.8273 512.966L23.8199 512.827C18.3411 509.356 14.7117 503.975 15.4758 494.738Z" fill="#239B02"/>
<path d="M23.9736 513.098C23.8347 513.105 23.8347 513.105 23.9736 513.098C18.3411 509.356 14.7117 503.975 15.4759 494.738C16.3789 485.494 21.4061 475.196 27.5332 472.502L27.5259 472.363" fill="#2AF309"/>
<path d="M12.0855 509.837C8.05504 505.751 4.87575 499.135 5.70787 495.132C9.35663 493.827 15.6836 496.577 19.7141 500.663C23.7445 504.749 24.3944 508.758 23.5901 512.903C19.9413 514.208 16.116 513.923 12.0855 509.837Z" fill="#239B02"/>
<path d="M23.5623 512.761C23.5901 512.903 23.5901 512.903 23.5623 512.761C19.9413 514.208 16.116 513.923 11.9559 509.862C7.92542 505.776 4.74612 499.161 5.57824 495.157" fill="#2AF309"/>
<path d="M35.9629 510.358C40.1218 506.494 43.3427 500.177 42.3988 496.306C38.5458 494.985 31.9528 497.523 27.7939 501.388C23.635 505.252 23.0234 509.103 23.9405 513.11C27.7936 514.431 31.804 514.223 35.9629 510.358Z" fill="#2AF309"/>
<path d="M23.9672 512.973C23.9405 513.11 23.9405 513.11 23.9672 512.973C27.7935 514.431 31.8039 514.223 36.0994 510.385C40.2583 506.52 43.4792 500.204 42.5354 496.333" fill="#239B02"/>
<path d="M107.476 494.738C108.379 485.494 113.406 475.196 119.533 472.502L119.526 472.363C125.012 475.974 128.11 487.095 127.346 496.332C126.443 505.576 121.954 510.272 115.82 512.827L115.827 512.966L115.82 512.827C110.341 509.356 106.712 503.975 107.476 494.738Z" fill="#239B02"/>
<path d="M115.974 513.098C115.835 513.105 115.835 513.105 115.974 513.098C110.341 509.356 106.712 503.975 107.476 494.738C108.379 485.494 113.406 475.196 119.533 472.502L119.526 472.363" fill="#2AF309"/>
<path d="M104.086 509.837C100.055 505.751 96.8757 499.135 97.7079 495.132C101.357 493.827 107.684 496.577 111.714 500.663C115.745 504.749 116.394 508.758 115.59 512.903C111.941 514.208 108.116 513.923 104.086 509.837Z" fill="#239B02"/>
<path d="M115.562 512.761C115.59 512.903 115.59 512.903 115.562 512.761C111.941 514.208 108.116 513.923 103.956 509.862C99.9254 505.776 96.7461 499.161 97.5782 495.157" fill="#2AF309"/>
<path d="M127.963 510.358C132.122 506.494 135.343 500.177 134.399 496.306C130.546 494.985 123.953 497.523 119.794 501.388C115.635 505.252 115.023 509.103 115.941 513.11C119.794 514.431 123.804 514.223 127.963 510.358Z" fill="#2AF309"/>
<path d="M115.967 512.973C115.941 513.11 115.941 513.11 115.967 512.973C119.794 514.431 123.804 514.223 128.099 510.385C132.258 506.52 135.479 500.204 134.535 496.333" fill="#239B02"/>
<path d="M153.476 494.738C154.379 485.494 159.406 475.196 165.533 472.502L165.526 472.363C171.012 475.974 174.11 487.095 173.346 496.332C172.443 505.576 167.954 510.272 161.82 512.827L161.827 512.966L161.82 512.827C156.341 509.356 152.712 503.975 153.476 494.738Z" fill="#239B02"/>
<path d="M161.974 513.098C161.835 513.105 161.835 513.105 161.974 513.098C156.341 509.356 152.712 503.975 153.476 494.738C154.379 485.494 159.406 475.196 165.533 472.502L165.526 472.363" fill="#2AF309"/>
<path d="M150.086 509.837C146.055 505.751 142.876 499.135 143.708 495.132C147.357 493.827 153.684 496.577 157.714 500.663C161.745 504.749 162.394 508.758 161.59 512.903C157.941 514.208 154.116 513.923 150.086 509.837Z" fill="#239B02"/>
<path d="M161.562 512.761C161.59 512.903 161.59 512.903 161.562 512.761C157.941 514.208 154.116 513.923 149.956 509.862C145.925 505.776 142.746 499.161 143.578 495.157" fill="#2AF309"/>
<path d="M173.963 510.358C178.122 506.494 181.343 500.177 180.399 496.306C176.546 494.985 169.953 497.523 165.794 501.388C161.635 505.252 161.023 509.103 161.941 513.11C165.794 514.431 169.804 514.223 173.963 510.358Z" fill="#2AF309"/>
<path d="M161.967 512.973C161.941 513.11 161.941 513.11 161.967 512.973C165.794 514.431 169.804 514.223 174.099 510.385C178.258 506.52 181.479 500.204 180.535 496.333" fill="#239B02"/>
<path d="M199.476 494.738C200.379 485.494 205.406 475.196 211.533 472.502L211.526 472.363C217.012 475.974 220.11 487.095 219.346 496.332C218.443 505.576 213.954 510.272 207.82 512.827L207.827 512.966L207.82 512.827C202.341 509.356 198.712 503.975 199.476 494.738Z" fill="#239B02"/>
<path d="M207.974 513.098C207.835 513.105 207.835 513.105 207.974 513.098C202.341 509.356 198.712 503.975 199.476 494.738C200.379 485.494 205.406 475.196 211.533 472.502L211.526 472.363" fill="#2AF309"/>
<path d="M196.086 509.837C192.055 505.751 188.876 499.135 189.708 495.132C193.357 493.827 199.684 496.577 203.714 500.663C207.745 504.749 208.394 508.758 207.59 512.903C203.941 514.208 200.116 513.923 196.086 509.837Z" fill="#239B02"/>
<path d="M207.562 512.761C207.59 512.903 207.59 512.903 207.562 512.761C203.941 514.208 200.116 513.923 195.956 509.862C191.925 505.776 188.746 499.161 189.578 495.157" fill="#2AF309"/>
<path d="M219.963 510.358C224.122 506.494 227.343 500.177 226.399 496.306C222.546 494.985 215.953 497.523 211.794 501.388C207.635 505.252 207.023 509.103 207.941 513.11C211.794 514.431 215.804 514.223 219.963 510.358Z" fill="#2AF309"/>
<path d="M207.967 512.973C207.941 513.11 207.941 513.11 207.967 512.973C211.794 514.431 215.804 514.223 220.099 510.385C224.258 506.52 227.479 500.204 226.535 496.333" fill="#239B02"/>
<path d="M245.476 494.738C246.379 485.494 251.406 475.196 257.533 472.502L257.526 472.363C263.012 475.974 266.11 487.095 265.346 496.332C264.443 505.576 259.954 510.272 253.82 512.827L253.827 512.966L253.82 512.827C248.341 509.356 244.712 503.975 245.476 494.738Z" fill="#239B02"/>
<path d="M253.974 513.098C253.835 513.105 253.835 513.105 253.974 513.098C248.341 509.356 244.712 503.975 245.476 494.738C246.379 485.494 251.406 475.196 257.533 472.502L257.526 472.363" fill="#2AF309"/>
<path d="M242.086 509.837C238.055 505.751 234.876 499.135 235.708 495.132C239.357 493.827 245.684 496.577 249.714 500.663C253.745 504.749 254.394 508.758 253.59 512.903C249.941 514.208 246.116 513.923 242.086 509.837Z" fill="#239B02"/>
<path d="M253.562 512.761C253.59 512.903 253.59 512.903 253.562 512.761C249.941 514.208 246.116 513.923 241.956 509.862C237.925 505.776 234.746 499.161 235.578 495.157" fill="#2AF309"/>
<path d="M265.963 510.358C270.122 506.494 273.343 500.177 272.399 496.306C268.546 494.985 261.953 497.523 257.794 501.388C253.635 505.252 253.023 509.103 253.941 513.11C257.794 514.431 261.804 514.223 265.963 510.358Z" fill="#2AF309"/>
<path d="M253.967 512.973C253.941 513.11 253.941 513.11 253.967 512.973C257.794 514.431 261.804 514.223 266.099 510.385C270.258 506.52 273.479 500.204 272.535 496.333" fill="#239B02"/>
<path d="M291.476 494.738C292.379 485.494 297.406 475.196 303.533 472.502L303.526 472.363C309.012 475.974 312.11 487.095 311.346 496.332C310.443 505.576 305.954 510.272 299.82 512.827L299.827 512.966L299.82 512.827C294.341 509.356 290.712 503.975 291.476 494.738Z" fill="#239B02"/>
<path d="M299.974 513.098C299.835 513.105 299.835 513.105 299.974 513.098C294.341 509.356 290.712 503.975 291.476 494.738C292.379 485.494 297.406 475.196 303.533 472.502L303.526 472.363" fill="#2AF309"/>
<path d="M288.086 509.837C284.055 505.751 280.876 499.135 281.708 495.132C285.357 493.827 291.684 496.577 295.714 500.663C299.745 504.749 300.394 508.758 299.59 512.903C295.941 514.208 292.116 513.923 288.086 509.837Z" fill="#239B02"/>
<path d="M299.562 512.761C299.59 512.903 299.59 512.903 299.562 512.761C295.941 514.208 292.116 513.923 287.956 509.862C283.925 505.776 280.746 499.161 281.578 495.157" fill="#2AF309"/>
<path d="M311.963 510.358C316.122 506.494 319.343 500.177 318.399 496.306C314.546 494.985 307.953 497.523 303.794 501.388C299.635 505.252 299.023 509.103 299.941 513.11C303.794 514.431 307.804 514.223 311.963 510.358Z" fill="#2AF309"/>
<path d="M299.967 512.973C299.941 513.11 299.941 513.11 299.967 512.973C303.794 514.431 307.804 514.223 312.099 510.385C316.258 506.52 319.479 500.204 318.535 496.333" fill="#239B02"/>
<path d="M337.476 494.738C338.379 485.494 343.406 475.196 349.533 472.502L349.526 472.363C355.012 475.974 358.11 487.095 357.346 496.332C356.443 505.576 351.954 510.272 345.82 512.827L345.827 512.966L345.82 512.827C340.341 509.356 336.712 503.975 337.476 494.738Z" fill="#239B02"/>
<path d="M345.974 513.098C345.835 513.105 345.835 513.105 345.974 513.098C340.341 509.356 336.712 503.975 337.476 494.738C338.379 485.494 343.406 475.196 349.533 472.502L349.526 472.363" fill="#2AF309"/>
<path d="M334.086 509.837C330.055 505.751 326.876 499.135 327.708 495.132C331.357 493.827 337.684 496.577 341.714 500.663C345.745 504.749 346.394 508.758 345.59 512.903C341.941 514.208 338.116 513.923 334.086 509.837Z" fill="#239B02"/>
<path d="M345.562 512.761C345.59 512.903 345.59 512.903 345.562 512.761C341.941 514.208 338.116 513.923 333.956 509.862C329.925 505.776 326.746 499.161 327.578 495.157" fill="#2AF309"/>
<path d="M357.963 510.358C362.122 506.494 365.343 500.177 364.399 496.306C360.546 494.985 353.953 497.523 349.794 501.388C345.635 505.252 345.023 509.103 345.941 513.11C349.794 514.431 353.804 514.223 357.963 510.358Z" fill="#2AF309"/>
<path d="M345.967 512.973C345.941 513.11 345.941 513.11 345.967 512.973C349.794 514.431 353.804 514.223 358.099 510.385C362.258 506.52 365.479 500.204 364.535 496.333" fill="#239B02"/>
<path d="M383.476 494.738C384.379 485.494 389.406 475.196 395.533 472.502L395.526 472.363C401.012 475.974 404.11 487.095 403.346 496.332C402.443 505.576 397.954 510.272 391.82 512.827L391.827 512.966L391.82 512.827C386.341 509.356 382.712 503.975 383.476 494.738Z" fill="#239B02"/>
<path d="M391.974 513.098C391.835 513.105 391.835 513.105 391.974 513.098C386.341 509.356 382.712 503.975 383.476 494.738C384.379 485.494 389.406 475.196 395.533 472.502L395.526 472.363" fill="#2AF309"/>
<path d="M380.086 509.837C376.055 505.751 372.876 499.135 373.708 495.132C377.357 493.827 383.684 496.577 387.714 500.663C391.745 504.749 392.394 508.758 391.59 512.903C387.941 514.208 384.116 513.923 380.086 509.837Z" fill="#239B02"/>
<path d="M391.562 512.761C391.59 512.903 391.59 512.903 391.562 512.761C387.941 514.208 384.116 513.923 379.956 509.862C375.925 505.776 372.746 499.161 373.578 495.157" fill="#2AF309"/>
<path d="M403.963 510.358C408.122 506.494 411.343 500.177 410.399 496.306C406.546 494.985 399.953 497.523 395.794 501.388C391.635 505.252 391.023 509.103 391.941 513.11C395.794 514.431 399.804 514.223 403.963 510.358Z" fill="#2AF309"/>
<path d="M391.967 512.973C391.941 513.11 391.941 513.11 391.967 512.973C395.794 514.431 399.804 514.223 404.099 510.385C408.258 506.52 411.479 500.204 410.535 496.333" fill="#239B02"/>
<path d="M429.476 494.738C430.379 485.494 435.406 475.196 441.533 472.502L441.526 472.363C447.012 475.974 450.11 487.095 449.346 496.332C448.443 505.576 443.954 510.272 437.82 512.827L437.827 512.966L437.82 512.827C432.341 509.356 428.712 503.975 429.476 494.738Z" fill="#239B02"/>
<path d="M437.974 513.098C437.835 513.105 437.835 513.105 437.974 513.098C432.341 509.356 428.712 503.975 429.476 494.738C430.379 485.494 435.406 475.196 441.533 472.502L441.526 472.363" fill="#2AF309"/>
<path d="M426.086 509.837C422.055 505.751 418.876 499.135 419.708 495.132C423.357 493.827 429.684 496.577 433.714 500.663C437.745 504.749 438.394 508.758 437.59 512.903C433.941 514.208 430.116 513.923 426.086 509.837Z" fill="#239B02"/>
<path d="M437.562 512.761C437.59 512.903 437.59 512.903 437.562 512.761C433.941 514.208 430.116 513.923 425.956 509.862C421.925 505.776 418.746 499.161 419.578 495.157" fill="#2AF309"/>
<path d="M449.963 510.358C454.122 506.494 457.343 500.177 456.399 496.306C452.546 494.985 445.953 497.523 441.794 501.388C437.635 505.252 437.023 509.103 437.941 513.11C441.794 514.431 445.804 514.223 449.963 510.358Z" fill="#2AF309"/>
<path d="M437.967 512.973C437.941 513.11 437.941 513.11 437.967 512.973C441.794 514.431 445.804 514.223 450.099 510.385C454.258 506.52 457.479 500.204 456.535 496.333" fill="#239B02"/>
<path d="M475.476 494.738C476.379 485.494 481.406 475.196 487.533 472.502L487.526 472.363C493.012 475.974 496.11 487.095 495.346 496.332C494.443 505.576 489.954 510.272 483.82 512.827L483.827 512.966L483.82 512.827C478.341 509.356 474.712 503.975 475.476 494.738Z" fill="#239B02"/>
<path d="M483.974 513.098C483.835 513.105 483.835 513.105 483.974 513.098C478.341 509.356 474.712 503.975 475.476 494.738C476.379 485.494 481.406 475.196 487.533 472.502L487.526 472.363" fill="#2AF309"/>
<path d="M472.086 509.837C468.055 505.751 464.876 499.135 465.708 495.132C469.357 493.827 475.684 496.577 479.714 500.663C483.745 504.749 484.394 508.758 483.59 512.903C479.941 514.208 476.116 513.923 472.086 509.837Z" fill="#239B02"/>
<path d="M483.562 512.761C483.59 512.903 483.59 512.903 483.562 512.761C479.941 514.208 476.116 513.923 471.956 509.862C467.925 505.776 464.746 499.161 465.578 495.157" fill="#2AF309"/>
<path d="M495.963 510.358C500.122 506.494 503.343 500.177 502.399 496.306C498.546 494.985 491.953 497.523 487.794 501.388C483.635 505.252 483.023 509.103 483.941 513.11C487.794 514.431 491.804 514.223 495.963 510.358Z" fill="#2AF309"/>
<path d="M483.967 512.973C483.941 513.11 483.941 513.11 483.967 512.973C487.794 514.431 491.804 514.223 496.099 510.385C500.258 506.52 503.479 500.204 502.535 496.333" fill="#239B02"/>
<path d="M521.476 494.738C522.379 485.494 527.406 475.196 533.533 472.502L533.526 472.363C539.012 475.974 542.11 487.095 541.346 496.332C540.443 505.576 535.954 510.272 529.82 512.827L529.827 512.966L529.82 512.827C524.341 509.356 520.712 503.975 521.476 494.738Z" fill="#239B02"/>
<path d="M529.974 513.098C529.835 513.105 529.835 513.105 529.974 513.098C524.341 509.356 520.712 503.975 521.476 494.738C522.379 485.494 527.406 475.196 533.533 472.502L533.526 472.363" fill="#2AF309"/>
<path d="M518.086 509.837C514.055 505.751 510.876 499.135 511.708 495.132C515.357 493.827 521.684 496.577 525.714 500.663C529.745 504.749 530.394 508.758 529.59 512.903C525.941 514.208 522.116 513.923 518.086 509.837Z" fill="#239B02"/>
<path d="M529.562 512.761C529.59 512.903 529.59 512.903 529.562 512.761C525.941 514.208 522.116 513.923 517.956 509.862C513.925 505.776 510.746 499.161 511.578 495.157" fill="#2AF309"/>
<path d="M541.963 510.358C546.122 506.494 549.343 500.177 548.399 496.306C544.546 494.985 537.953 497.523 533.794 501.388C529.635 505.252 529.023 509.103 529.941 513.11C533.794 514.431 537.804 514.223 541.963 510.358Z" fill="#2AF309"/>
<path d="M529.967 512.973C529.941 513.11 529.941 513.11 529.967 512.973C533.794 514.431 537.804 514.223 542.099 510.385C546.258 506.52 549.479 500.204 548.535 496.333" fill="#239B02"/>
<path d="M567.476 494.738C568.379 485.494 573.406 475.196 579.533 472.502L579.526 472.363C585.012 475.974 588.11 487.095 587.346 496.332C586.443 505.576 581.954 510.272 575.82 512.827L575.827 512.966L575.82 512.827C570.341 509.356 566.712 503.975 567.476 494.738Z" fill="#239B02"/>
<path d="M575.974 513.098C575.835 513.105 575.835 513.105 575.974 513.098C570.341 509.356 566.712 503.975 567.476 494.738C568.379 485.494 573.406 475.196 579.533 472.502L579.526 472.363" fill="#2AF309"/>
<path d="M564.086 509.837C560.055 505.751 556.876 499.135 557.708 495.132C561.357 493.827 567.684 496.577 571.714 500.663C575.745 504.749 576.394 508.758 575.59 512.903C571.941 514.208 568.116 513.923 564.086 509.837Z" fill="#239B02"/>
<path d="M575.562 512.761C575.59 512.903 575.59 512.903 575.562 512.761C571.941 514.208 568.116 513.923 563.956 509.862C559.925 505.776 556.746 499.161 557.578 495.157" fill="#2AF309"/>
<path d="M587.963 510.358C592.122 506.494 595.343 500.177 594.399 496.306C590.546 494.985 583.953 497.523 579.794 501.388C575.635 505.252 575.023 509.103 575.941 513.11C579.794 514.431 583.804 514.223 587.963 510.358Z" fill="#2AF309"/>
<path d="M575.967 512.973C575.941 513.11 575.941 513.11 575.967 512.973C579.794 514.431 583.804 514.223 588.099 510.385C592.258 506.52 595.479 500.204 594.535 496.333" fill="#239B02"/>
<path d="M613.476 494.738C614.379 485.494 619.406 475.196 625.533 472.502L625.526 472.363C631.012 475.974 634.11 487.095 633.346 496.332C632.443 505.576 627.954 510.272 621.82 512.827L621.827 512.966L621.82 512.827C616.341 509.356 612.712 503.975 613.476 494.738Z" fill="#239B02"/>
<path d="M621.974 513.098C621.835 513.105 621.835 513.105 621.974 513.098C616.341 509.356 612.712 503.975 613.476 494.738C614.379 485.494 619.406 475.196 625.533 472.502L625.526 472.363" fill="#2AF309"/>
<path d="M610.086 509.837C606.055 505.751 602.876 499.135 603.708 495.132C607.357 493.827 613.684 496.577 617.714 500.663C621.745 504.749 622.394 508.758 621.59 512.903C617.941 514.208 614.116 513.923 610.086 509.837Z" fill="#239B02"/>
<path d="M621.562 512.761C621.59 512.903 621.59 512.903 621.562 512.761C617.941 514.208 614.116 513.923 609.956 509.862C605.925 505.776 602.746 499.161 603.578 495.157" fill="#2AF309"/>
<path d="M633.963 510.358C638.122 506.494 641.343 500.177 640.399 496.306C636.546 494.985 629.953 497.523 625.794 501.388C621.635 505.252 621.023 509.103 621.941 513.11C625.794 514.431 629.804 514.223 633.963 510.358Z" fill="#2AF309"/>
<path d="M621.967 512.973C621.941 513.11 621.941 513.11 621.967 512.973C625.794 514.431 629.804 514.223 634.099 510.385C638.258 506.52 641.479 500.204 640.535 496.333" fill="#239B02"/>
<path d="M659.476 494.738C660.379 485.494 665.406 475.196 671.533 472.502L671.526 472.363C677.012 475.974 680.11 487.095 679.346 496.332C678.443 505.576 673.954 510.272 667.82 512.827L667.827 512.966L667.82 512.827C662.341 509.356 658.712 503.975 659.476 494.738Z" fill="#239B02"/>
<path d="M667.974 513.098C667.835 513.105 667.835 513.105 667.974 513.098C662.341 509.356 658.712 503.975 659.476 494.738C660.379 485.494 665.406 475.196 671.533 472.502L671.526 472.363" fill="#2AF309"/>
<path d="M656.086 509.837C652.055 505.751 648.876 499.135 649.708 495.132C653.357 493.827 659.684 496.577 663.714 500.663C667.745 504.749 668.394 508.758 667.59 512.903C663.941 514.208 660.116 513.923 656.086 509.837Z" fill="#239B02"/>
<path d="M667.562 512.761C667.59 512.903 667.59 512.903 667.562 512.761C663.941 514.208 660.116 513.923 655.956 509.862C651.925 505.776 648.746 499.161 649.578 495.157" fill="#2AF309"/>
<path d="M679.963 510.358C684.122 506.494 687.343 500.177 686.399 496.306C682.546 494.985 675.953 497.523 671.794 501.388C667.635 505.252 667.023 509.103 667.941 513.11C671.794 514.431 675.804 514.223 679.963 510.358Z" fill="#2AF309"/>
<path d="M667.967 512.973C667.941 513.11 667.941 513.11 667.967 512.973C671.794 514.431 675.804 514.223 680.099 510.385C684.258 506.52 687.479 500.204 686.535 496.333" fill="#239B02"/>
<path d="M705.476 494.738C706.379 485.494 711.406 475.196 717.533 472.502L717.526 472.363C723.012 475.974 726.11 487.095 725.346 496.332C724.443 505.576 719.954 510.272 713.82 512.827L713.827 512.966L713.82 512.827C708.341 509.356 704.712 503.975 705.476 494.738Z" fill="#239B02"/>
<path d="M713.974 513.098C713.835 513.105 713.835 513.105 713.974 513.098C708.341 509.356 704.712 503.975 705.476 494.738C706.379 485.494 711.406 475.196 717.533 472.502L717.526 472.363" fill="#2AF309"/>
<path d="M702.086 509.837C698.055 505.751 694.876 499.135 695.708 495.132C699.357 493.827 705.684 496.577 709.714 500.663C713.745 504.749 714.394 508.758 713.59 512.903C709.941 514.208 706.116 513.923 702.086 509.837Z" fill="#239B02"/>
<path d="M713.562 512.761C713.59 512.903 713.59 512.903 713.562 512.761C709.941 514.208 706.116 513.923 701.956 509.862C697.925 505.776 694.746 499.161 695.578 495.157" fill="#2AF309"/>
<path d="M725.963 510.358C730.122 506.494 733.343 500.177 732.399 496.306C728.546 494.985 721.953 497.523 717.794 501.388C713.635 505.252 713.023 509.103 713.941 513.11C717.794 514.431 721.804 514.223 725.963 510.358Z" fill="#2AF309"/>
<path d="M713.967 512.973C713.941 513.11 713.941 513.11 713.967 512.973C717.794 514.431 721.804 514.223 726.099 510.385C730.258 506.52 733.479 500.204 732.535 496.333" fill="#239B02"/>
<path d="M751.476 494.738C752.379 485.494 757.406 475.196 763.533 472.502L763.526 472.363C769.012 475.974 772.11 487.095 771.346 496.332C770.443 505.576 765.954 510.272 759.82 512.827L759.827 512.966L759.82 512.827C754.341 509.356 750.712 503.975 751.476 494.738Z" fill="#239B02"/>
<path d="M759.974 513.098C759.835 513.105 759.835 513.105 759.974 513.098C754.341 509.356 750.712 503.975 751.476 494.738C752.379 485.494 757.406 475.196 763.533 472.502L763.526 472.363" fill="#2AF309"/>
<path d="M748.086 509.837C744.055 505.751 740.876 499.135 741.708 495.132C745.357 493.827 751.684 496.577 755.714 500.663C759.745 504.749 760.394 508.758 759.59 512.903C755.941 514.208 752.116 513.923 748.086 509.837Z" fill="#239B02"/>
<path d="M759.562 512.761C759.59 512.903 759.59 512.903 759.562 512.761C755.941 514.208 752.116 513.923 747.956 509.862C743.925 505.776 740.746 499.161 741.578 495.157" fill="#2AF309"/>
<path d="M771.963 510.358C776.122 506.494 779.343 500.177 778.399 496.306C774.546 494.985 767.953 497.523 763.794 501.388C759.635 505.252 759.023 509.103 759.941 513.11C763.794 514.431 767.804 514.223 771.963 510.358Z" fill="#2AF309"/>
<path d="M759.967 512.973C759.94 513.11 759.94 513.11 759.967 512.973C763.794 514.431 767.804 514.223 772.099 510.385C776.258 506.52 779.479 500.204 778.535 496.333" fill="#239B02"/>
<path d="M797.476 494.738C798.379 485.494 803.406 475.196 809.533 472.502L809.526 472.363C815.012 475.974 818.11 487.095 817.346 496.332C816.443 505.576 811.954 510.272 805.82 512.827L805.827 512.966L805.82 512.827C800.341 509.356 796.712 503.975 797.476 494.738Z" fill="#239B02"/>
<path d="M805.974 513.098C805.835 513.105 805.835 513.105 805.974 513.098C800.341 509.356 796.712 503.975 797.476 494.738C798.379 485.494 803.406 475.196 809.533 472.502L809.526 472.363" fill="#2AF309"/>
<path d="M794.086 509.837C790.055 505.751 786.876 499.135 787.708 495.132C791.357 493.827 797.684 496.577 801.714 500.663C805.745 504.749 806.394 508.758 805.59 512.903C801.941 514.208 798.116 513.923 794.086 509.837Z" fill="#239B02"/>
<path d="M805.562 512.761C805.59 512.903 805.59 512.903 805.562 512.761C801.941 514.208 798.116 513.923 793.956 509.862C789.925 505.776 786.746 499.161 787.578 495.157" fill="#2AF309"/>
<path d="M817.963 510.358C822.122 506.494 825.343 500.177 824.399 496.306C820.546 494.985 813.953 497.523 809.794 501.388C805.635 505.252 805.023 509.103 805.941 513.11C809.794 514.431 813.804 514.223 817.963 510.358Z" fill="#2AF309"/>
<path d="M805.967 512.973C805.94 513.11 805.94 513.11 805.967 512.973C809.794 514.431 813.804 514.223 818.099 510.385C822.258 506.52 825.479 500.204 824.535 496.333" fill="#239B02"/>
<path d="M843.476 494.738C844.379 485.494 849.406 475.196 855.533 472.502L855.526 472.363C861.012 475.974 864.11 487.095 863.346 496.332C862.443 505.576 857.954 510.272 851.82 512.827L851.827 512.966L851.82 512.827C846.341 509.356 842.712 503.975 843.476 494.738Z" fill="#239B02"/>
<path d="M851.974 513.098C851.835 513.105 851.835 513.105 851.974 513.098C846.341 509.356 842.712 503.975 843.476 494.738C844.379 485.494 849.406 475.196 855.533 472.502L855.526 472.363" fill="#2AF309"/>
<path d="M840.086 509.837C836.055 505.751 832.876 499.135 833.708 495.132C837.357 493.827 843.684 496.577 847.714 500.663C851.745 504.749 852.394 508.758 851.59 512.903C847.941 514.208 844.116 513.923 840.086 509.837Z" fill="#239B02"/>
<path d="M851.562 512.761C851.59 512.903 851.59 512.903 851.562 512.761C847.941 514.208 844.116 513.923 839.956 509.862C835.925 505.776 832.746 499.161 833.578 495.157" fill="#2AF309"/>
<path d="M863.963 510.358C868.122 506.494 871.343 500.177 870.399 496.306C866.546 494.985 859.953 497.523 855.794 501.388C851.635 505.252 851.023 509.103 851.941 513.11C855.794 514.431 859.804 514.223 863.963 510.358Z" fill="#2AF309"/>
<path d="M851.967 512.973C851.94 513.11 851.94 513.11 851.967 512.973C855.794 514.431 859.804 514.223 864.099 510.385C868.258 506.52 871.479 500.204 870.535 496.333" fill="#239B02"/>
<path d="M889.476 494.738C890.379 485.494 895.406 475.196 901.533 472.502L901.526 472.363C907.012 475.974 910.11 487.095 909.346 496.332C908.443 505.576 903.954 510.272 897.82 512.827L897.827 512.966L897.82 512.827C892.341 509.356 888.712 503.975 889.476 494.738Z" fill="#239B02"/>
<path d="M897.974 513.098C897.835 513.105 897.835 513.105 897.974 513.098C892.341 509.356 888.712 503.975 889.476 494.738C890.379 485.494 895.406 475.196 901.533 472.502L901.526 472.363" fill="#2AF309"/>
<path d="M886.086 509.837C882.055 505.751 878.876 499.135 879.708 495.132C883.357 493.827 889.684 496.577 893.714 500.663C897.745 504.749 898.394 508.758 897.59 512.903C893.941 514.208 890.116 513.923 886.086 509.837Z" fill="#239B02"/>
<path d="M897.562 512.761C897.59 512.903 897.59 512.903 897.562 512.761C893.941 514.208 890.116 513.923 885.956 509.862C881.925 505.776 878.746 499.161 879.578 495.157" fill="#2AF309"/>
<path d="M909.963 510.358C914.122 506.494 917.343 500.177 916.399 496.306C912.546 494.985 905.953 497.523 901.794 501.388C897.635 505.252 897.023 509.103 897.941 513.11C901.794 514.431 905.804 514.223 909.963 510.358Z" fill="#2AF309"/>
<path d="M897.967 512.973C897.94 513.11 897.94 513.11 897.967 512.973C901.794 514.431 905.804 514.223 910.099 510.385C914.258 506.52 917.479 500.204 916.535 496.333" fill="#239B02"/>
<path d="M935.476 494.738C936.379 485.494 941.406 475.196 947.533 472.502L947.526 472.363C953.012 475.974 956.11 487.095 955.346 496.332C954.443 505.576 949.954 510.272 943.82 512.827L943.827 512.966L943.82 512.827C938.341 509.356 934.712 503.975 935.476 494.738Z" fill="#239B02"/>
<path d="M943.974 513.098C943.835 513.105 943.835 513.105 943.974 513.098C938.341 509.356 934.712 503.975 935.476 494.738C936.379 485.494 941.406 475.196 947.533 472.502L947.526 472.363" fill="#2AF309"/>
<path d="M932.086 509.837C928.055 505.751 924.876 499.135 925.708 495.132C929.357 493.827 935.684 496.577 939.714 500.663C943.745 504.749 944.394 508.758 943.59 512.903C939.941 514.208 936.116 513.923 932.086 509.837Z" fill="#239B02"/>
<path d="M943.562 512.761C943.59 512.903 943.59 512.903 943.562 512.761C939.941 514.208 936.116 513.923 931.956 509.862C927.925 505.776 924.746 499.161 925.578 495.157" fill="#2AF309"/>
<path d="M955.963 510.358C960.122 506.494 963.343 500.177 962.399 496.306C958.546 494.985 951.953 497.523 947.794 501.388C943.635 505.252 943.023 509.103 943.941 513.11C947.794 514.431 951.804 514.223 955.963 510.358Z" fill="#2AF309"/>
<path d="M943.967 512.973C943.94 513.11 943.94 513.11 943.967 512.973C947.794 514.431 951.804 514.223 956.099 510.385C960.258 506.52 963.479 500.204 962.535 496.333" fill="#239B02"/>
<path d="M981.476 494.738C982.379 485.494 987.406 475.196 993.533 472.502L993.526 472.363C999.012 475.974 1002.11 487.095 1001.35 496.332C1000.44 505.576 995.954 510.272 989.82 512.827L989.827 512.966L989.82 512.827C984.341 509.356 980.712 503.975 981.476 494.738Z" fill="#239B02"/>
<path d="M989.974 513.098C989.835 513.105 989.835 513.105 989.974 513.098C984.341 509.356 980.712 503.975 981.476 494.738C982.379 485.494 987.406 475.196 993.533 472.502L993.526 472.363" fill="#2AF309"/>
<path d="M978.086 509.837C974.055 505.751 970.876 499.135 971.708 495.132C975.357 493.827 981.684 496.577 985.714 500.663C989.745 504.749 990.394 508.758 989.59 512.903C985.941 514.208 982.116 513.923 978.086 509.837Z" fill="#239B02"/>
<path d="M989.562 512.761C989.59 512.903 989.59 512.903 989.562 512.761C985.941 514.208 982.116 513.923 977.956 509.862C973.925 505.776 970.746 499.161 971.578 495.157" fill="#2AF309"/>
<path d="M1001.96 510.358C1006.12 506.494 1009.34 500.177 1008.4 496.306C1004.55 494.985 997.953 497.523 993.794 501.388C989.635 505.252 989.023 509.103 989.941 513.11C993.794 514.431 997.804 514.223 1001.96 510.358Z" fill="#2AF309"/>
<path d="M989.967 512.973C989.94 513.11 989.94 513.11 989.967 512.973C993.794 514.431 997.804 514.223 1002.1 510.385C1006.26 506.52 1009.48 500.204 1008.54 496.333" fill="#239B02"/>
<path d="M1027.48 494.738C1028.38 485.494 1033.41 475.196 1039.53 472.502L1039.53 472.363C1045.01 475.974 1048.11 487.095 1047.35 496.332C1046.44 505.576 1041.95 510.272 1035.82 512.827L1035.83 512.966L1035.82 512.827C1030.34 509.356 1026.71 503.975 1027.48 494.738Z" fill="#239B02"/>
<path d="M1035.97 513.098C1035.83 513.105 1035.83 513.105 1035.97 513.098C1030.34 509.356 1026.71 503.975 1027.48 494.738C1028.38 485.494 1033.41 475.196 1039.53 472.502L1039.53 472.363" fill="#2AF309"/>
<path d="M1024.09 509.837C1020.06 505.751 1016.88 499.135 1017.71 495.132C1021.36 493.827 1027.68 496.577 1031.71 500.663C1035.74 504.749 1036.39 508.758 1035.59 512.903C1031.94 514.208 1028.12 513.923 1024.09 509.837Z" fill="#239B02"/>
<path d="M1035.56 512.761C1035.59 512.903 1035.59 512.903 1035.56 512.761C1031.94 514.208 1028.12 513.923 1023.96 509.862C1019.93 505.776 1016.75 499.161 1017.58 495.157" fill="#2AF309"/>
<path d="M1047.96 510.358C1052.12 506.494 1055.34 500.177 1054.4 496.306C1050.55 494.985 1043.95 497.523 1039.79 501.388C1035.63 505.252 1035.02 509.103 1035.94 513.11C1039.79 514.431 1043.8 514.223 1047.96 510.358Z" fill="#2AF309"/>
<path d="M1035.97 512.973C1035.94 513.11 1035.94 513.11 1035.97 512.973C1039.79 514.431 1043.8 514.223 1048.1 510.385C1052.26 506.52 1055.48 500.204 1054.54 496.333" fill="#239B02"/>
<path d="M1073.48 494.738C1074.38 485.494 1079.41 475.196 1085.53 472.502L1085.53 472.363C1091.01 475.974 1094.11 487.095 1093.35 496.332C1092.44 505.576 1087.95 510.272 1081.82 512.827L1081.83 512.966L1081.82 512.827C1076.34 509.356 1072.71 503.975 1073.48 494.738Z" fill="#239B02"/>
<path d="M1081.97 513.098C1081.83 513.105 1081.83 513.105 1081.97 513.098C1076.34 509.356 1072.71 503.975 1073.48 494.738C1074.38 485.494 1079.41 475.196 1085.53 472.502L1085.53 472.363" fill="#2AF309"/>
<path d="M1070.09 509.837C1066.06 505.751 1062.88 499.135 1063.71 495.132C1067.36 493.827 1073.68 496.577 1077.71 500.663C1081.74 504.749 1082.39 508.758 1081.59 512.903C1077.94 514.208 1074.12 513.923 1070.09 509.837Z" fill="#239B02"/>
<path d="M1081.56 512.761C1081.59 512.903 1081.59 512.903 1081.56 512.761C1077.94 514.208 1074.12 513.923 1069.96 509.862C1065.93 505.776 1062.75 499.161 1063.58 495.157" fill="#2AF309"/>
<path d="M1093.96 510.358C1098.12 506.494 1101.34 500.177 1100.4 496.306C1096.55 494.985 1089.95 497.523 1085.79 501.388C1081.63 505.252 1081.02 509.103 1081.94 513.11C1085.79 514.431 1089.8 514.223 1093.96 510.358Z" fill="#2AF309"/>
<path d="M1081.97 512.973C1081.94 513.11 1081.94 513.11 1081.97 512.973C1085.79 514.431 1089.8 514.223 1094.1 510.385C1098.26 506.52 1101.48 500.204 1100.54 496.333" fill="#239B02"/>
<path d="M1119.48 494.738C1120.38 485.494 1125.41 475.196 1131.53 472.502L1131.53 472.363C1137.01 475.974 1140.11 487.095 1139.35 496.332C1138.44 505.576 1133.95 510.272 1127.82 512.827L1127.83 512.966L1127.82 512.827C1122.34 509.356 1118.71 503.975 1119.48 494.738Z" fill="#239B02"/>
<path d="M1127.97 513.098C1127.83 513.105 1127.83 513.105 1127.97 513.098C1122.34 509.356 1118.71 503.975 1119.48 494.738C1120.38 485.494 1125.41 475.196 1131.53 472.502L1131.53 472.363" fill="#2AF309"/>
<path d="M1116.09 509.837C1112.06 505.751 1108.88 499.135 1109.71 495.132C1113.36 493.827 1119.68 496.577 1123.71 500.663C1127.74 504.749 1128.39 508.758 1127.59 512.903C1123.94 514.208 1120.12 513.923 1116.09 509.837Z" fill="#239B02"/>
<path d="M1127.56 512.761C1127.59 512.903 1127.59 512.903 1127.56 512.761C1123.94 514.208 1120.12 513.923 1115.96 509.862C1111.93 505.776 1108.75 499.161 1109.58 495.157" fill="#2AF309"/>
<path d="M1139.96 510.358C1144.12 506.494 1147.34 500.177 1146.4 496.306C1142.55 494.985 1135.95 497.523 1131.79 501.388C1127.63 505.252 1127.02 509.103 1127.94 513.11C1131.79 514.431 1135.8 514.223 1139.96 510.358Z" fill="#2AF309"/>
<path d="M1127.97 512.973C1127.94 513.11 1127.94 513.11 1127.97 512.973C1131.79 514.431 1135.8 514.223 1140.1 510.385C1144.26 506.52 1147.48 500.204 1146.54 496.333" fill="#239B02"/>
<path d="M1165.48 494.738C1166.38 485.494 1171.41 475.196 1177.53 472.502L1177.53 472.363C1183.01 475.974 1186.11 487.095 1185.35 496.332C1184.44 505.576 1179.95 510.272 1173.82 512.827L1173.83 512.966L1173.82 512.827C1168.34 509.356 1164.71 503.975 1165.48 494.738Z" fill="#239B02"/>
<path d="M1173.97 513.098C1173.83 513.105 1173.83 513.105 1173.97 513.098C1168.34 509.356 1164.71 503.975 1165.48 494.738C1166.38 485.494 1171.41 475.196 1177.53 472.502L1177.53 472.363" fill="#2AF309"/>
<path d="M1162.09 509.837C1158.06 505.751 1154.88 499.135 1155.71 495.132C1159.36 493.827 1165.68 496.577 1169.71 500.663C1173.74 504.749 1174.39 508.758 1173.59 512.903C1169.94 514.208 1166.12 513.923 1162.09 509.837Z" fill="#239B02"/>
<path d="M1173.56 512.761C1173.59 512.903 1173.59 512.903 1173.56 512.761C1169.94 514.208 1166.12 513.923 1161.96 509.862C1157.93 505.776 1154.75 499.161 1155.58 495.157" fill="#2AF309"/>
<path d="M1185.96 510.358C1190.12 506.494 1193.34 500.177 1192.4 496.306C1188.55 494.985 1181.95 497.523 1177.79 501.388C1173.63 505.252 1173.02 509.103 1173.94 513.11C1177.79 514.431 1181.8 514.223 1185.96 510.358Z" fill="#2AF309"/>
<path d="M1173.97 512.973C1173.94 513.11 1173.94 513.11 1173.97 512.973C1177.79 514.431 1181.8 514.223 1186.1 510.385C1190.26 506.52 1193.48 500.204 1192.54 496.333" fill="#239B02"/>
<path d="M1211.48 494.738C1212.38 485.494 1217.41 475.196 1223.53 472.502L1223.53 472.363C1229.01 475.974 1232.11 487.095 1231.35 496.332C1230.44 505.576 1225.95 510.272 1219.82 512.827L1219.83 512.966L1219.82 512.827C1214.34 509.356 1210.71 503.975 1211.48 494.738Z" fill="#239B02"/>
<path d="M1219.97 513.098C1219.83 513.105 1219.83 513.105 1219.97 513.098C1214.34 509.356 1210.71 503.975 1211.48 494.738C1212.38 485.494 1217.41 475.196 1223.53 472.502L1223.53 472.363" fill="#2AF309"/>
<path d="M1208.09 509.837C1204.06 505.751 1200.88 499.135 1201.71 495.132C1205.36 493.827 1211.68 496.577 1215.71 500.663C1219.74 504.749 1220.39 508.758 1219.59 512.903C1215.94 514.208 1212.12 513.923 1208.09 509.837Z" fill="#239B02"/>
<path d="M1219.56 512.761C1219.59 512.903 1219.59 512.903 1219.56 512.761C1215.94 514.208 1212.12 513.923 1207.96 509.862C1203.93 505.776 1200.75 499.161 1201.58 495.157" fill="#2AF309"/>
<path d="M1231.96 510.358C1236.12 506.494 1239.34 500.177 1238.4 496.306C1234.55 494.985 1227.95 497.523 1223.79 501.388C1219.63 505.252 1219.02 509.103 1219.94 513.11C1223.79 514.431 1227.8 514.223 1231.96 510.358Z" fill="#2AF309"/>
<path d="M1219.97 512.973C1219.94 513.11 1219.94 513.11 1219.97 512.973C1223.79 514.431 1227.8 514.223 1232.1 510.385C1236.26 506.52 1239.48 500.204 1238.54 496.333" fill="#239B02"/>
<path d="M1257.48 494.738C1258.38 485.494 1263.41 475.196 1269.53 472.502L1269.53 472.363C1275.01 475.974 1278.11 487.095 1277.35 496.332C1276.44 505.576 1271.95 510.272 1265.82 512.827L1265.83 512.966L1265.82 512.827C1260.34 509.356 1256.71 503.975 1257.48 494.738Z" fill="#239B02"/>
<path d="M1265.97 513.098C1265.83 513.105 1265.83 513.105 1265.97 513.098C1260.34 509.356 1256.71 503.975 1257.48 494.738C1258.38 485.494 1263.41 475.196 1269.53 472.502L1269.53 472.363" fill="#2AF309"/>
<path d="M1254.09 509.837C1250.06 505.751 1246.88 499.135 1247.71 495.132C1251.36 493.827 1257.68 496.577 1261.71 500.663C1265.74 504.749 1266.39 508.758 1265.59 512.903C1261.94 514.208 1258.12 513.923 1254.09 509.837Z" fill="#239B02"/>
<path d="M1265.56 512.761C1265.59 512.903 1265.59 512.903 1265.56 512.761C1261.94 514.208 1258.12 513.923 1253.96 509.862C1249.93 505.776 1246.75 499.161 1247.58 495.157" fill="#2AF309"/>
<path d="M1277.96 510.358C1282.12 506.494 1285.34 500.177 1284.4 496.306C1280.55 494.985 1273.95 497.523 1269.79 501.388C1265.63 505.252 1265.02 509.103 1265.94 513.11C1269.79 514.431 1273.8 514.223 1277.96 510.358Z" fill="#2AF309"/>
<path d="M1265.97 512.973C1265.94 513.11 1265.94 513.11 1265.97 512.973C1269.79 514.431 1273.8 514.223 1278.1 510.385C1282.26 506.52 1285.48 500.204 1284.54 496.333" fill="#239B02"/>
<path d="M61.4758 494.738C62.3789 485.494 67.406 475.196 73.5332 472.502L73.5258 472.363C79.012 475.974 82.1099 487.095 81.3457 496.332C80.4427 505.576 75.9544 510.272 69.8199 512.827L69.8273 512.966L69.8199 512.827C64.3411 509.356 60.7117 503.975 61.4758 494.738Z" fill="#239B02"/>
<path d="M69.9736 513.098C69.8347 513.105 69.8347 513.105 69.9736 513.098C64.3411 509.356 60.7117 503.975 61.4759 494.738C62.3789 485.494 67.4061 475.196 73.5332 472.502L73.5259 472.363" fill="#2AF309"/>
<path d="M58.0855 509.837C54.055 505.751 50.8757 499.135 51.7079 495.132C55.3566 493.827 61.6836 496.577 65.7141 500.663C69.7445 504.749 70.3944 508.758 69.5901 512.903C65.9413 514.208 62.116 513.923 58.0855 509.837Z" fill="#239B02"/>
<path d="M69.5623 512.761C69.5901 512.903 69.5901 512.903 69.5623 512.761C65.9413 514.208 62.116 513.923 57.9559 509.862C53.9254 505.776 50.7461 499.161 51.5782 495.157" fill="#2AF309"/>
<path d="M81.9629 510.358C86.1218 506.494 89.3427 500.177 88.3988 496.306C84.5458 494.985 77.9528 497.523 73.7939 501.388C69.635 505.252 69.0234 509.103 69.9405 513.11C73.7936 514.431 77.804 514.223 81.9629 510.358Z" fill="#2AF309"/>
<path d="M69.9672 512.973C69.9405 513.11 69.9405 513.11 69.9672 512.973C73.7935 514.431 77.8039 514.223 82.0994 510.385C86.2583 506.52 89.4792 500.204 88.5354 496.333" fill="#239B02"/>
<g clip-path="url(#clip1)">
<g filter="url(#filter0_d)">
<path d="M647.932 75.6688C688.453 75.6688 721.303 44.2515 721.303 5.49641C721.303 -33.2587 688.453 -64.676 647.932 -64.676C607.411 -64.676 574.561 -33.2587 574.561 5.49641C574.561 44.2515 607.411 75.6688 647.932 75.6688Z" fill="#FFFF00"/>
</g>
<path fill-rule="evenodd" clip-rule="evenodd" d="M525.331 14.5906C526.086 12.7944 525.877 13.0242 527.422 11.9316C531.856 8.79886 540.426 5.72975 545.573 4.30835C547.44 3.79212 547.504 3.93355 549.432 3.98659C554.221 4.12448 564.237 5.08977 568.657 7.23956C569.897 7.84065 569.504 7.66739 570.471 8.96151L569.56 10.1884C567.838 11.7089 556.641 14.0602 554.175 14.6542C552.998 14.9371 549.276 16.0084 548.397 16.1145C548.025 16.1569 545.42 16.1004 544.871 16.1039C540.217 16.1393 532.884 16.652 528.408 15.9978C526.533 15.7256 526.834 15.8387 525.331 14.5906Z" fill="#FFFF00"/>
<path fill-rule="evenodd" clip-rule="evenodd" d="M772.14 13.6624C771.385 11.8662 771.594 12.096 770.049 11.0034C765.615 7.87067 757.045 4.80156 751.899 3.38016C750.031 2.86392 749.967 3.00536 748.039 3.05839C743.251 3.19629 733.234 4.16158 728.815 6.31137C727.574 6.91246 727.968 6.7392 727 8.03332L727.911 9.26025C729.633 10.7807 740.83 13.132 743.297 13.726C744.473 14.0089 748.195 15.0802 749.074 15.1863C749.446 15.2287 752.051 15.1722 752.6 15.1757C757.254 15.2111 764.587 15.7238 769.064 15.0696C770.939 14.7974 770.637 14.9105 772.14 13.6624Z" fill="#FFFF00"/>
<path fill-rule="evenodd" clip-rule="evenodd" d="M725.604 24.0941C725.189 26.0674 725.08 25.9409 726.035 27.7019C727.925 31.198 732.404 34.7146 735.653 36.9629C737.132 37.9822 737.046 37.8165 738.828 38.1673C741.557 38.7099 750.294 40.0643 752.666 38.9767L753.992 37.9912L753.748 36.3508C752.857 34.0436 745.49 29.1109 743.23 27.5561C741.803 26.5753 742.103 26.5689 740.425 26.2166C736.95 25.4873 733.391 24.6277 729.923 23.9687C727.678 23.5419 727.805 23.4152 725.604 24.0941Z" fill="#FFFF00"/>
<path fill-rule="evenodd" clip-rule="evenodd" d="M540 52.3132C540.028 49.5942 539.883 50.0503 541.265 47.7944C543.417 44.2833 547.103 40.1287 550.084 37.247C551.398 35.9741 552.246 35.7796 553.94 35.0937C557.64 33.5945 563.13 31.9149 567.107 32.0033C569.074 32.0493 568.486 32.0599 570.47 33.1737L569.85 35.2174C569.148 36.5222 561.656 42.9574 559.887 44.6192C558.657 45.7719 558.409 46.2952 556.853 46.9918C553.075 48.6784 548.581 51.0191 544.717 52.2178C542.169 53.0098 542.651 52.9815 540 52.3132Z" fill="#FFFF00"/>
<path fill-rule="evenodd" clip-rule="evenodd" d="M583.582 55.9447C583.448 57.7727 583.561 57.5005 582.576 58.989C580.407 62.2526 576.203 66.6795 573.499 69.6744C572.056 71.2655 572.233 70.8518 570.302 71.856C567.966 73.0759 559.038 77.821 556.748 77.6972L555.37 77.3366L555.001 75.9505C554.909 72.9733 561.253 65.2723 563.241 63.0022C564.709 61.3262 564.365 61.3192 566.311 60.3079C570.015 58.3844 576.21 55.4603 580.35 55.0819C582.179 54.9122 582.051 54.9228 583.582 55.9447Z" fill="#FFFF00"/>
<path fill-rule="evenodd" clip-rule="evenodd" d="M594.617 70C597.034 71.6194 597.165 71.2517 597.364 74.289C597.619 78.1537 595.754 82.7679 594.113 86.2048C592.983 88.5703 592.16 88.9592 590.186 90.5751C588.478 91.9753 582.541 96.5895 580.649 96.9962L578.82 97.0209L578.816 97.0174L578.051 95.3379C577.569 92.9158 580.659 86.3038 581.786 83.9701C582.832 81.7956 582.928 80.9894 584.785 79.3558C587.135 77.2909 589.555 75.1623 591.689 72.8711C593.149 71.3012 592.749 71.6159 594.617 70Z" fill="#FFFF00"/>
<path fill-rule="evenodd" clip-rule="evenodd" d="M631.11 84.2185C632.103 86.0925 632.099 85.7707 632 87.7649C631.947 88.861 630.55 98.0472 630.274 98.6801C629.976 99.359 624.621 105.953 623.827 106.774C623.352 107.265 622.154 108.421 621.551 108.669L619.825 108.987L618.642 107.689C617.351 105.465 618.213 98.1992 618.666 95.5756C618.925 94.0941 618.677 94.2037 619.559 93.0157C621.569 90.3001 624.578 86.7678 627.456 84.9928C629.179 83.9285 629.009 84.077 631.11 84.2185Z" fill="#FFFF00"/>
<path fill-rule="evenodd" clip-rule="evenodd" d="M647.213 82.1429C649.768 81.9661 649.488 81.8565 651.661 83.1895C655.768 85.707 659.692 90.4521 662.389 94.4123C663.502 96.0423 663.3 96.0282 663.775 97.9552C664.778 102.014 665.965 108.881 665.466 112.979C665.249 114.754 665.306 114.206 664.14 115.917L662.311 115.26C660.408 114.082 654.804 104.903 653.185 102.456C652.16 100.904 652.132 101.29 651.646 99.4968C650.406 94.9462 648.864 90.9401 647.496 86.5309C646.745 84.1088 646.752 84.7276 647.213 82.1429Z" fill="#FFFF00"/>
<path fill-rule="evenodd" clip-rule="evenodd" d="M680.119 77C683.068 77.4102 682.745 77.3677 685.006 79.1427C686.233 80.1009 691.95 85.1855 692.623 86.126C693.534 87.4025 696.213 96.0158 696.483 97.9145C696.802 100.153 696.731 99.4066 695.919 101.769H693.665C691.304 101.235 685.775 96.1996 683.936 94.4176C682.61 93.1341 682.624 93.3922 681.983 91.6985C680.877 88.7814 679.133 83.6863 679.027 80.6101C678.953 78.4073 678.953 79.0897 680.119 77Z" fill="#FFFF00"/>
<path fill-rule="evenodd" clip-rule="evenodd" d="M700 65.1902C702.095 63.9314 701.847 63.896 704.214 64.0834C708.23 64.4052 712.618 66.3464 715.96 68.5421C717.236 69.3837 717.091 69.4685 717.906 70.7803C719.813 73.86 721.989 78.7784 722.24 82.3849C722.361 84.0857 722.279 83.6013 721.439 85.4576L719.462 85.4222C717.856 85.051 711.43 79.9311 709.364 78.5768C708.209 77.8202 708.428 78.2763 707.73 77.166C705.774 74.0687 703.729 71.9471 701.581 69.1149C700.128 67.2056 700.365 67.7041 700 65.1902Z" fill="#FFFF00"/>
<path fill-rule="evenodd" clip-rule="evenodd" d="M716 45.9061C718.254 44.0922 717.956 44.0356 720.771 44.0003C721.813 43.9861 726.69 44.4953 727.441 44.8843C728.625 45.496 732.538 51.0119 732.86 52.4262L732.928 54.9119L730.833 56.2909C729.394 56.8283 722.486 56.1318 721.352 55.3999C720.916 55.1205 717.96 51.2417 717.524 50.5911C716.035 48.36 716.266 48.7525 716 45.9061Z" fill="#FFFF00"/>
</g>
</g>
<rect x="0.5" y="0.5" width="1279" height="515" stroke="black"/>
<defs>
<filter id="filter0_d" x="570.561" y="-64.676" width="154.741" height="148.345" filterUnits="userSpaceOnUse" color-interpolation-filters="sRGB">
<feFlood flood-opacity="0" result="BackgroundImageFix"/>
<feColorMatrix in="SourceAlpha" type="matrix" values="0 0 0 0 0 0 0 0 0 0 0 0 0 0 0 0 0 0 127 0" result="hardAlpha"/>
<feOffset dy="4"/>
<feGaussianBlur stdDeviation="2"/>
<feComposite in2="hardAlpha" operator="out"/>
<feColorMatrix type="matrix" values="0 0 0 0 0 0 0 0 0 0 0 0 0 0 0 0 0 0 0.25 0"/>
<feBlend mode="normal" in2="BackgroundImageFix" result="effect1_dropShadow"/>
<feBlend mode="normal" in="SourceGraphic" in2="effect1_dropShadow" result="shape"/>
</filter>
<clipPath id="clip0">
</clipPath>
<clipPath id="clip1">
<rect width="254" height="226" fill="white" transform="translate(519 -105)"/>
</clipPath>
</defs>
</svg>
